<svg xmlns="http://www.w3.org/2000/svg" viewBox="0 0 156.67 76.01"><defs><style>.cls-1{fill:#668cff;}</style></defs><title>Asset 19</title><g id="Layer_2" data-name="Layer 2"><g id="Layer_1-2" data-name="Layer 1"><path class="cls-1" d="M0,29.52c0-5.85,5.38-8.06,13.06-8.06h2.83v-1c0-3-.91-4.61-4.08-4.61-2.74,0-4,1.39-4.27,3.55H1c.43-6,5.14-8.59,11.28-8.59s10.51,2.5,10.51,9.31V36.48H16v-3C14.55,35.48,12.34,37,8.4,37,3.84,37,0,34.8,0,29.52ZM15.89,27.7V25.59H13.2c-4,0-6.38.86-6.38,3.55,0,1.82,1.1,3,3.65,3C13.54,32.16,15.89,30.48,15.89,27.7Z"/><path class="cls-1" d="M24,11.38h7v4c1.25-2.49,4-4.56,8.16-4.56,5,0,8.45,3,8.45,9.7v16h-7v-15c0-3.41-1.34-5-4.41-5S30.91,18.29,30.91,22V36.48H24Z"/><path class="cls-1" d="M48.1,24.29v-.38c0-8.26,4.75-13.11,11-13.11,4,0,6.53,1.78,7.92,4.32V0H74V36.48H67.06V32.31A9.15,9.15,0,0,1,59,37C52.9,37,48.1,32.64,48.1,24.29Zm19.15-.24v-.38c0-5-2.21-7.54-6-7.54s-6,2.64-6,7.63v.39c0,5,2.4,7.44,5.86,7.44C64.71,31.59,67.25,29.14,67.25,24.05Z"/><path class="cls-1" d="M75.46,11.38h7v4.8A8.24,8.24,0,0,1,90.53,11v6.48c-5.14,0-8.11,1.64-8.11,6.44V36.48h-7Z"/><path class="cls-1" d="M89.18,24.24v-.38c0-7.92,5.62-13.06,12.92-13.06,6.48,0,12.24,3.79,12.24,12.77v1.92H96.24c.19,4.18,2.45,6.58,6.24,6.58,3.22,0,4.8-1.4,5.23-3.51h6.58c-.82,5.43-5.14,8.45-12,8.45C94.7,37,89.18,32.26,89.18,24.24Zm18.39-3c-.24-3.79-2.16-5.62-5.47-5.62-3.12,0-5.24,2.07-5.76,5.62Z"/><path class="cls-1" d="M112,11.38h7.3l4.46,16.89,4.85-16.89h5.71l4.42,16.89,4.75-16.89h6.67l-7.92,25.1h-6.81l-4.28-15.74-4.6,15.74h-6.92Z"/><path class="cls-1" d="M45,67.61H51.5c.29,2.26,1.39,3.55,4.42,3.55,2.69,0,3.93-1,3.93-2.73s-1.48-2.45-5.08-3c-6.68-1-9.27-2.93-9.27-7.82,0-5.24,4.8-7.83,9.94-7.83,5.57,0,9.74,2,10.37,7.78H59.42c-.38-2.07-1.53-3-3.93-3s-3.56,1.06-3.56,2.6,1.2,2.2,4.85,2.73c6.29.91,9.75,2.5,9.75,7.87S62.59,76,56,76,45.26,73,45,67.61Z"/><path class="cls-1" d="M67.05,39h7V54.36c1.25-2.49,4-4.56,8.16-4.56,5,0,8.45,3,8.45,9.7v16h-7v-15c0-3.41-1.34-5-4.41-5S74,57.29,74,61V75.48h-7Z"/><path class="cls-1" d="M91.49,43.18A4,4,0,1,1,95.42,47,3.8,3.8,0,0,1,91.49,43.18Zm.52,7.2h6.92v25.1H92Z"/><path class="cls-1" d="M99.64,68.52c0-5.85,5.38-8.06,13.06-8.06h2.83v-1c0-3-.91-4.61-4.08-4.61-2.73,0-4,1.39-4.27,3.55H100.6c.44-6,5.14-8.59,11.28-8.59s10.52,2.5,10.52,9.31V75.48h-6.77v-3C114.19,74.48,112,76,108,76,103.48,76,99.64,73.8,99.64,68.52Zm15.89-1.82V64.59h-2.69c-4,0-6.38.86-6.38,3.55,0,1.82,1.1,3,3.65,3C113.18,71.16,115.53,69.48,115.53,66.7Z"/><path class="cls-1" d="M123.64,66.55V50.38h6.92V65.59c0,3.41,1.39,5,4.36,5s5.24-1.82,5.24-5.52V50.38h6.91v25.1h-6.91V71.55c-1.3,2.54-3.84,4.46-8,4.46C127.29,76,123.64,73.13,123.64,66.55Z"/><path class="cls-1" d="M148.08,71.69a4.3,4.3,0,1,1,4.27,4.23A4.2,4.2,0,0,1,148.08,71.69Z"/></g></g></svg>