<svg xmlns="http://www.w3.org/2000/svg" viewBox="0 0 464.96 227.02"><defs><style>.cls-1{fill:#668cff;}</style></defs><title>Asset 19</title><g id="Layer_2" data-name="Layer 2"><g id="Layer_1-2" data-name="Layer 1"><path class="cls-1" d="M0,88.56C0,71,16.13,64.37,39.17,64.37h8.49v-3c0-8.92-2.73-13.82-12.24-13.82-8.2,0-12,4.18-12.81,10.65H2.88C4.18,40.32,18.29,32.4,36.72,32.4s31.53,7.49,31.53,27.93v49.11H48v-9.07C43.63,106.41,37,111,25.2,111,11.52,111,0,104.4,0,88.56Zm47.66-5.47V76.75H39.6c-12.1,0-19.15,2.59-19.15,10.66,0,5.47,3.31,9.07,10.94,9.07C40.61,96.48,47.66,91.44,47.66,83.09Z"/><path class="cls-1" d="M70.42,34.13H91.29V46.08c3.75-7.49,12-13.68,24.48-13.68,14.84,0,25.35,8.93,25.35,29.09v47.95H120.24V64.51c0-10.22-4-15.12-13.25-15.12-8.93,0-15.7,5.47-15.7,16.56v43.49H70.42Z"/><path class="cls-1" d="M142.85,72.86V71.71c0-24.77,14.25-39.31,33.12-39.31,12.09,0,19.58,5.33,23.76,13V0h20.73V109.44H199.73V96.91c-3.89,7.63-13.11,14.11-24.2,14.11C157.25,111,142.85,97.92,142.85,72.86Zm57.45-.72V71c0-15-6.62-22.61-18-22.61-11.66,0-18.14,7.92-18.14,22.9v1.15c0,15,7.2,22.32,17.57,22.32C192.67,94.75,200.3,87.41,200.3,72.14Z"/><path class="cls-1" d="M222.48,34.13h20.88v14.4c4.75-10.08,12.09-15.41,24.33-15.55V52.42c-15.4-.15-24.33,4.89-24.33,19.29v37.73H222.48Z"/><path class="cls-1" d="M263.66,72.72V71.57c0-23.76,16.85-39.17,38.74-39.17,19.44,0,36.72,11.38,36.72,38.3v5.76H284.83c.57,12.53,7.34,19.73,18.72,19.73,9.65,0,14.4-4.18,15.69-10.51H339C336.52,102,323.56,111,303,111,280.22,111,263.66,96.77,263.66,72.72Zm55.15-9.07c-.72-11.38-6.48-16.85-16.41-16.85-9.36,0-15.7,6.19-17.28,16.85Z"/><path class="cls-1" d="M332.2,34.13h21.89l13.39,50.68L382,34.13h17.13l13.25,50.68,14.26-50.68h20l-23.76,75.31H402.47L389.66,62.21l-13.83,47.23H355.1Z"/><path class="cls-1" d="M133.48,201.82h19.44c.86,6.77,4.17,10.66,13.25,10.66,8.06,0,11.8-3,11.8-8.21s-4.46-7.34-15.26-8.93c-20-3-27.79-8.78-27.79-23.47,0-15.69,14.4-23.47,29.81-23.47,16.7,0,29.23,6,31.1,23.33H176.68c-1.15-6.19-4.61-9.07-11.81-9.07-6.77,0-10.66,3.16-10.66,7.77s3.6,6.63,14.55,8.21c18.86,2.74,29.23,7.49,29.23,23.61,0,16.28-11.81,24.77-31.68,24.77C146,227,134.2,218.09,133.48,201.82Z"/><path class="cls-1" d="M199.58,116h20.87v46.08c3.75-7.49,12-13.68,24.48-13.68,14.84,0,25.35,8.93,25.35,29.09v47.95H249.4V180.51c0-10.22-4-15.12-13.25-15.12-8.93,0-15.7,5.47-15.7,16.56v43.49H199.58Z"/><path class="cls-1" d="M270.85,128.53c0-6.48,5.19-11.38,11.81-11.38s11.95,4.9,11.95,11.38-5.18,11.37-11.95,11.37S270.85,135,270.85,128.53Zm1.59,21.6h20.73v75.31H272.44Z"/><path class="cls-1" d="M295.33,204.56c0-17.57,16.13-24.19,39.17-24.19H343v-3c0-8.92-2.74-13.82-12.24-13.82-8.21,0-12,4.18-12.82,10.65H298.21c1.3-17.85,15.41-25.77,33.84-25.77s31.54,7.49,31.54,27.93v49.11H343.28v-9.07c-4.32,6-10.94,10.65-22.75,10.65C306.85,227,295.33,220.4,295.33,204.56ZM343,199.09v-6.34h-8.07c-12.09,0-19.15,2.59-19.15,10.66,0,5.47,3.31,9.07,10.94,9.07C335.94,212.48,343,207.44,343,199.09Z"/><path class="cls-1" d="M365.89,198.65V150.13h20.74v45.64c0,10.23,4.17,15.12,13.1,15.12s15.7-5.47,15.7-16.56v-44.2h20.73v75.31H415.43V213.63c-3.89,7.63-11.52,13.39-23.91,13.39C376.84,227,365.89,218.38,365.89,198.65Z"/><path class="cls-1" d="M439.19,214.06A12.89,12.89,0,1,1,452,226.73,12.6,12.6,0,0,1,439.19,214.06Z"/></g></g></svg>